<svg version="1" xmlns="http://www.w3.org/2000/svg" width="933.333" height="933.333" viewBox="0 0 700.000000 700.000000"><path d="M172.3 21c-31.3 3.3-62.8 18.6-85.7 41.6-14.8 14.8-25.9 32.1-33.2 51.3l-3.2 8.6-9.8.5c-8.4.4-10.9 1-16.6 3.7-9.3 4.4-15.1 10-19.6 19.1-3.6 7.3-3.7 8-3.7 18.1 0 9.4.3 11.2 2.6 16.1 7.7 16.1 21.8 25 39.8 25h7.7l1.8 5.7c5 16.1 17.6 36.9 30.8 50.8 20.2 21.4 43.5 34.9 72.3 42.2 10.2 2.5 12.5 2.7 32 2.8 17 0 22.5-.4 29-1.9 30.3-7 51.9-18.8 72.5-39.5 17.4-17.4 27.6-33.8 34.9-55.6 4.1-12.1 7.1-26.6 7.1-33.6 0-3.6.2-3.9 4.3-5.1 5.4-1.6 23.9-1.6 29.3 0l4.1 1.2.7 8c1.4 16.9 9 40 18.5 56 17.9 30.1 47.9 54.3 79.6 64.3 17.7 5.5 22.6 6.2 45 6.2 19.5-.1 21.8-.3 32-2.8 28.8-7.3 52.1-20.8 72.3-42.2 13.2-13.9 25.8-34.7 30.8-50.8l1.8-5.7h7.7c18 0 32.1-8.9 39.8-25 2.3-4.9 2.6-6.7 2.6-16.1 0-10.1-.1-10.8-3.7-18.1-4.5-9.1-10.3-14.7-19.6-19.1-5.7-2.7-8.2-3.3-16.5-3.7l-9.8-.5-3.8-9.6c-7.9-20.1-18-35.6-32.7-50.3-53-53-136.1-56.6-193.8-8.5-25.3 21.2-43.5 52.6-49 84.7-.8 4.6-1.6 8.5-1.8 8.7-.2.3-4.5-.1-9.6-.7-6.9-.8-11.5-.8-18.4 0-5.1.6-9.4 1-9.6.7-.2-.2-1-3.9-1.8-8.2-3.5-20.1-12.6-41.9-24.5-58.7-30-42.2-80.9-65-132.6-59.6zm30.9 68.5c31 6.5 55 32.2 59.8 64 6.2 40.5-24.3 80.1-65.9 85.6-32.8 4.4-66.3-15.1-79-45.9-4.5-10.9-5.6-16.7-5.5-29.7 0-13.9 1.6-20.8 7.6-33.5 4.4-9.5 4.6-13.5.7-17.6l-2.1-2.3 3.5-4.1c1.9-2.3 5.4-5.7 7.6-7.7l4.1-3.5 2.5 2.1c4.8 3.7 7.7 3.6 17.2-.7 8.2-3.8 16.4-6.5 22.3-7.5 5.8-1 21-.6 27.2.8zm324.3 0c16.6 3.5 34 14.5 44.2 28 5.6 7.3 11.7 19.7 14 28.5 2.3 8.8 2.3 27.1-.1 35.9-8.3 30.6-33.7 53.1-64.5 57.2-22.4 3-47-5.6-63.1-22-36.9-37.8-25.7-99.7 22.3-122.1 14.3-6.7 31.5-8.7 47.2-5.5zM44.5 164v18h-3.3c-3.8 0-9.8-2.3-12.5-4.8-1.1-.9-2.8-3.4-3.8-5.4-6-11.7 2.5-25.6 15.6-25.8h4v18zm621.2-16.9c3.8 1.4 8.3 5.7 9.9 9.6 2.8 6.6.9 15.9-4.3 20.5-2.7 2.5-8.7 4.8-12.5 4.8h-3.3v-36h3.7c2 0 4.9.5 6.5 1.1zM6.3 330.5C-.4 333.4 0 325.8 0 453v115l3.4 3.8 3.4 3.7 338.9.3c186.3.2 340.8 0 343.2-.3 3.2-.5 5.4-1.6 7.8-4l3.3-3.3v-26.4c0-28.8-.1-29.2-6-32.3-2.4-1.3-9.4-1.5-43-1.5h-40v-22h82.2l3.4-3.4c3.8-3.8 4.5-8.6 1.9-13.5-3-5.9-4.3-6.1-47.9-6.1H611v-21h38.3c23 0 39.7-.4 41.9-1 5.1-1.5 8.8-6.1 8.8-11.2 0-3.2-.7-4.7-3.4-7.4l-3.4-3.4H611v-22h39.5c43.5 0 45-.2 47.9-5.9 2.4-4.5 2.4-51.7 0-56.2-3.2-6.4 24.1-5.9-348.6-5.9-287.7.1-340.8.3-343.5 1.5zM134 452v100h-22V352h22v100zm365-58.9c0 39.9.1 41.2 2.1 44 1.1 1.6 3.5 3.2 5.2 3.7l3.2.8.3 10.5.3 10.5-3.5 1.2c-2 .7-4.5 2.5-5.6 3.9-1.9 2.5-2 3.9-2 43.4V552h-22V352h22v41.1zM52.5 612.7C-.2 630.2 0 630.1 0 638.7c0 8.1 0 8.1 52.5 25.6l47 15.7h295.3c252.9 0 295.8-.2 298.7-1.4 6.3-2.7 6.5-3.8 6.5-40.1 0-36.2-.1-36.9-6.4-39.9-3.1-1.5-27.5-1.6-298.8-1.6H99.5l-47 15.7zM618 638.5V657h-37v-37h37v18.5z"/></svg>