<?xml version="1.0" encoding="iso-8859-1"?>
<!-- Generator: Adobe Illustrator 19.0.0, SVG Export Plug-In . SVG Version: 6.00 Build 0)  -->
<svg version="1.1" id="Layer_1" xmlns="http://www.w3.org/2000/svg" xmlns:xlink="http://www.w3.org/1999/xlink" x="0px" y="0px"
	 viewBox="0 0 512 512" style="enable-background:new 0 0 512 512;" xml:space="preserve">
<g>
	<g>
		<path d="M243.762,409.66l-48.538-64.973l42.274-42.914c2.475-2.722,3.746-5.641,3.746-8.661c0-3.209-1.323-6.153-3.977-8.465
			c-2.125-1.715-4.676-2.628-7.876-2.628c-2.748,0.512-5.973,0.691-9.003,3.985l-57.224,57.95v-50.338c0-3.541-1.451-6.664-4.25-8.9
			c-4.471-3.422-10.752-3.499-15.548,0.29c-2.449,2.15-3.746,5.137-3.746,8.61v122.65c0,3.447,1.203,6.46,3.703,8.909
			c4.301,3.891,11.375,4.096,16,0c2.526-2.261,3.849-5.35,3.849-8.909v-39.689l15.147-15.377l46.174,61.747
			c1.954,2.91,4.779,4.71,8.098,5.197l2.048,0.162c2.125,0,4.147-0.538,6.374-1.766c2.773-1.749,4.599-4.378,5.171-7.603
			C246.663,415.795,245.861,412.646,243.762,409.66z"/>
	</g>
</g>
<g>
	<g>
		<path d="M368.784,350.891c-2.603-3.063-6.272-4.676-10.598-4.676H316.56c-6.75,0-11.273,4.523-11.273,11.247
			c0,6.741,4.523,11.264,11.273,11.264h32.051c-0.947,12.476-4.727,21.922-11.273,28.134c-6.477,6.076-14.899,9.028-25.796,9.028
			c-12.877,0-22.554-3.891-29.551-11.887c-7.578-8.585-11.426-21.649-11.426-38.784c0-16.708,3.849-29.662,11.452-38.485
			c7.108-8.209,16.759-12.194,29.508-12.194c9.924,0,17.971,1.937,23.876,5.709c5.751,3.797,9.276,9.225,10.701,16.128
			c0.503,3.789,2.603,6.852,5.504,8.388c2.048,1.289,4.275,1.954,6.647,1.954l1.929-0.154c3.2-0.478,5.922-1.997,8.021-4.651
			c1.374-1.903,2.85-5.111,1.929-9.916c-2.654-11.349-8.371-20.591-16.998-27.486c-10.479-8.286-24.474-12.484-41.6-12.484
			c-19.55,0-35.473,6.861-47.326,20.429c-11.529,13.303-17.374,31.053-17.374,52.762c0,22.212,5.854,40.09,17.374,53.128
			c11.622,13.312,27.554,20.062,47.326,20.062c11.571,0,21.726-2.441,30.148-7.228c2.603-1.451,5.026-3.115,7.279-5.001
			c0.35,2.697,1.527,5.103,3.55,7.1c4.352,3.874,11.401,4.096,16.026,0c2.526-2.261,3.849-5.35,3.849-8.909v-53.777
			C372.385,356.77,371.062,353.34,368.784,350.891z"/>
	</g>
</g>
<g>
	<g>
		<path d="M510.028,476.553l-128-307.2c-3.977-9.54-13.295-15.753-23.629-15.753h-39.885c16.666-16.282,27.085-38.921,27.085-64
			c0-49.408-40.192-89.6-89.6-89.6s-89.6,40.192-89.6,89.6c0,25.079,10.419,47.718,27.085,64h-39.885
			c-10.334,0-19.652,6.212-23.629,15.753l-128,307.2c-3.294,7.902-2.415,16.922,2.33,24.047C9.044,507.725,17.04,512,25.599,512
			h460.8c8.559,0,16.555-4.275,21.299-11.401C512.451,493.474,513.321,484.454,510.028,476.553z M191.999,89.6
			c0-35.345,28.655-64,64-64c35.345,0,64,28.655,64,64c0,35.345-28.655,64-64,64C220.654,153.6,191.999,124.945,191.999,89.6z
			 M25.599,486.4l128-307.2h204.8l128,307.2H25.599z"/>
	</g>
</g>
<g>
</g>
<g>
</g>
<g>
</g>
<g>
</g>
<g>
</g>
<g>
</g>
<g>
</g>
<g>
</g>
<g>
</g>
<g>
</g>
<g>
</g>
<g>
</g>
<g>
</g>
<g>
</g>
<g>
</g>
</svg>
